<svg id="Layer_2" viewbox="0 0 36 24" xmlns="http://www.w3.org/2000/svg">
 <path d="M27.5 22l-3.3-5.5h6.7zM20.6 6.6c0-.1-.1-.2-.1-.3-.1.1-.1.2-.2.2-.7.8-1.3 1.7-2 2.5-.4.5-1 .6-1.5.2-.1-.1-.2-.2-.4-.3-.2-.2-.3-.4-.4-.7 0-.3.1-.6.3-.8.7-.8 1.3-1.7 2-2.5.1-.1.1-.2.2-.2-.1 0-.2 0-.3-.1-1.2-.2-2.5.3-3.4 1.3-.8 1-1 2.4-.6 3.6-.6.8-1.3 1.7-1.9 2.5L9.2 7.7c.2-.1.4-.3.6-.5 1.9-1.4 2.4-.2 2.9-.8.5-.6-2-2.2-4.1-.7-.1.2-.3.4-.5.5-.3-.2-.7-.3-1 0-.2.2-.3.5-.2.8-.6.5-1.1.8-1.3 1l-.1-.1c-.2-.3-.6-.3-.8-.1l-.7.5c-.3.2-.4.5-.2.8L5 10.8c.2.3.6.3.9.1l.7-.5c.3-.2.3-.6.1-.9.2-.2.7-.5 1.3-.9l3.4 4.7-.1.1c-.2.1-.3.3-.3.5-1.2 1.5-2.4 3.1-3.6 4.6-.2.3-.4.7-.3 1.1 0 .4.2.7.5 1 .1.1.2.2.4.3.6.5 1.5.4 2-.3.9-1.2 1.9-2.4 2.8-3.6l2.3 3.5c.3.4.8.4 1.1.2l2.2-1.6c.4-.3.4-.8.2-1.1l-3.4-4.1c.6-.7 1.1-1.5 1.7-2.2 1.2.2 2.4-.3 3.2-1.4.8-1.1 1-2.5.5-3.7z">
 </path>
</svg>
