<svg id="Layer_2" viewbox="0 0 36 24" xmlns="http://www.w3.org/2000/svg">
 <path d="M27.5 22l-3.3-5.5h6.7zM12.9 5.1c0-.9-.7-1.7-1.7-1.7-.9 0-1.7.7-1.7 1.7 0 .9.7 1.7 1.7 1.7.9 0 1.7-.8 1.7-1.7zm5.3 15.5h-2.9v1.1h7v-1.1h-1.7v-7.3h1.7v-1.1h-9.7v1.1h5.6v7.3zM6 16.7v.1c0 .3.2.5.5.5h1.6v1.5h.3v1l-2 .6v.5h.2v.1c-.1.1-.3.2-.3.4s.2.4.4.4.4-.2.4-.4-.1-.3-.3-.4v-.1l1.6-.2v.1h.1v.6h.2v.4H9v-1h.1v-.1l1.5.2v.1c-.1.1-.3.2-.3.4s.2.4.4.4.4-.2.4-.4-.1-.3-.3-.4v-.1h.2v-.5l-2-.5v-1h.3v-1.5h1.9c.3 0 .5-.2.5-.5v-.1c0-.2-.1-.3-.2-.4h1.3l-.8 4c-.1.5.3 1.1.8 1.2.6.1 1.1-.2 1.2-.8l1.1-5.3v-.4c-.1-.6-.5-1-1.1-1h-3.2l.4-1.9h3.9c.2 0 .3 0 .5-.1h4.2v-.5c.1 0 .1-.1.2-.1l.5.2 1.9-5-.6-.2-1.9 4.9h-.1c-.1 0-.2.1-.2.2H16v-.1c0-.5-.4-.9-.9-.9h-3.5l.2-1c.2-.9-.4-1.7-1.3-1.9l-.5-.1c-.8-.4-1.6.1-1.8 1L7.7 11l-.1.7V10c0-.3-.2-.5-.5-.5h-.5c-.3 0-.6.2-.6.5v3.8c0 .3.2.5.5.5v1.8c-.3.1-.5.3-.5.6zm1-1c.1.2.3.4.5.5H7v-.5z" >
 </path>
</svg>
