<svg id="Layer_2" viewbox="0 0 36 24" xmlns="http://www.w3.org/2000/svg">
 <path d="M27.5 22l-3.3-5.5h6.7zm-6.4-8.9h-1.5c-.3 0-.5-.2-.5-.5s.2-.5.5-.5h1.5c.3 0 .5.2.5.5s-.2.5-.5.5zm-15.3 0H4.3c-.3 0-.5-.2-.5-.5s.2-.5.5-.5h1.5c.3 0 .5.2.5.5s-.2.5-.5.5zm6.9-6.3c-.3 0-.5-.2-.5-.5V4.8c0-.3.2-.5.5-.5s.5.2.5.5v1.5c0 .2-.2.5-.5.5zm0 14.8c-.3 0-.5-.2-.5-.5v-1.5c0-.3.2-.5.5-.5s.5.2.5.5v1.5c0 .2-.2.5-.5.5zm4.9-4.1l1.1 1m0 .5c-.1 0-.2 0-.3-.1l-1.1-1c-.2-.2-.2-.5 0-.7.2-.2.5-.2.7 0l1.1 1c.2.2.2.5 0 .7-.1.1-.3.1-.4.1zM6.8 7l1.1 1.1m0 .5c-.1 0-.3 0-.3-.1l-1.1-1c-.2-.2-.2-.5 0-.7.2-.2.5-.2.7 0l1.1 1c.2.2.2.5 0 .7-.2 0-.3.1-.4.1zm9.5-.7l1-1m-1 1.5c-.1 0-.3-.1-.4-.2-.2-.2-.2-.5 0-.7l1.1-1c.2-.2.5-.2.7 0 .2.2.2.5 0 .7l-1.1 1c-.1.2-.2.2-.3.2zm-10.9 10l1.1-1m-1.1 1.5c-.1 0-.3-.1-.4-.2-.1-.1-.1-.5.1-.7l1.1-1c.2-.2.5-.2.7 0 .2.2.2.5 0 .7l-1.1 1c-.1.2-.2.2-.4.2z" >
 </path>
 <ellipse cx="12.8" cy="12.9" rx="4.8" ry="4.6">
 </ellipse>
</svg>
