<svg id="Layer_2" viewbox="0 0 36 24" xmlns="http://www.w3.org/2000/svg">
 <path d="M27.5 22l-3.3-5.5h6.7zm-8-9.5h3.4v3.4h-3.4zm.1-3.9H23V12h-3.4zm-4 3.9H19v3.4h-3.4zm.1-3.9h3.4V12h-3.4zm-4 3.9h3.4v3.4h-3.4zm.1-3.9h3.4V12h-3.4zm7.7 7.8h3.4v3.4h-3.4zm-3.9 0H19v3.4h-3.4zm-3.9 0h3.4v3.4h-3.4z" fill="#fff">
 </path>
 <path d="M17.4 14.7l-2.6-2.1.1 3.3-1.5-3.1-1.3 3.1v-3.3l-2.5 2.3 1.4-3.1-3.3 1.1 2.5-2.2-3.4-.3 3.3-1L7 7.8l3.5.3-2.1-2.6 3 1.6-.8-3.2 2 2.7.7-3.3.7 3.3 2-2.7-.7 3.2 3-1.7-2.1 2.7 3.5-.5-3 1.7 3.3.9-3.4.4 2.6 2.2-3.3-1z" fill="#fff">
 </path>
</svg>
