<svg fill="#FFFFFF" xmlns="http://www.w3.org/2000/svg" xmlns:xlink="http://www.w3.org/1999/xlink" version="1.1" x="0px" y="0px" viewBox="0 0 20 20" enable-background="new 0 0 20 20" xml:space="preserve">
  <g transform="scale(0.8) translate(2, 0)">
    <path fill="#FFFFFF" d="M20,15l0-15H5l0,15H20z M18,2l0,11H7L7,2H18z"></path>
    <polygon fill="#FFFFFF" points="2,17 0,17 0,20 3,20 3,18 2,18  "></polygon>
    <polygon fill="#FFFFFF" points="0,7 2,7 2,6 3,6 3,4 0,4  "></polygon>
    <polygon fill="#FFFFFF" points="14,18 13,18 13,20 16,20 16,17 14,17  "></polygon>
    <rect x="5" y="18" fill="#FFFFFF" width="2" height="2"></rect>
    <rect x="9" y="18" fill="#FFFFFF" width="2" height="2"></rect>
    <rect y="13" fill="#FFFFFF" width="2" height="2"></rect>
    <rect y="9" fill="#FFFFFF" width="2" height="2"></rect>
  </g>
</svg>
