<svg fill="#FFFFFF" xmlns="http://www.w3.org/2000/svg" xmlns:xlink="http://www.w3.org/1999/xlink" version="1.1" x="0px" y="0px" viewBox="0 0 100 99.999" enable-background="new 0 0 100 99.999" xml:space="preserve"><g display="none"><rect x="5.001" y="5.007" display="inline" fill="none" stroke="#FFFFFF" stroke-width="0.02" stroke-miterlimit="10" width="90" height="90"></rect></g><g><g><path d="M31.001,54.999h38c1.104,0,2-0.896,2-2s-0.896-2-2-2h-38c-1.104,0-2,0.896-2,2S29.896,54.999,31.001,54.999z"></path><path d="M31.001,35.999h38c1.104,0,2-0.896,2-2s-0.896-2-2-2h-38c-1.104,0-2,0.896-2,2S29.896,35.999,31.001,35.999z"></path><path d="M95.001,70.007h-13v-2.16V31.192c0-1.85-0.853-3.594-2.31-4.73L53.812,6.269c-1.084-0.846-2.388-1.27-3.69-1.27    c-1.295,0-2.589,0.418-3.67,1.252l-26.12,20.193c-1.47,1.137-2.33,2.891-2.33,4.748v36.654v2.16h-13v4h3v16.5    c0,0.824,0.675,1.5,1.5,1.5s1.5-0.676,1.5-1.5v-16.5h2v16.5c0,0.824,0.675,1.5,1.5,1.5s1.5-0.676,1.5-1.5v-16.5h2v14.99    c0,3.312,2.687,6,6,6h26.12h25.88c3.313,0,6-2.688,6-6v-14.99h2v16.5c0,0.826,0.675,1.5,1.5,1.5s1.5-0.674,1.5-1.5v-16.5h2v16.5    c0,0.826,0.675,1.5,1.5,1.5s1.5-0.674,1.5-1.5v-16.5h3V70.007z M24.001,31.192l26.12-20.193l25.88,20.193v36.654v2.152h-52v-2.152    V31.192z"></path></g></g></svg>
