<svg id="Layer_1" viewbox="0 0 29.9 26.4" xmlns="http://www.w3.org/2000/svg">
 <path d="M11.6 18.4c-1-.6-1.5-.7-2.5-1.8-1.6-1.7-.9-2.4.1-2.2 1 .2 1.9-.9.8-2.4-1.1-1.5-2.4-1-2.5 0-.1 1.1-1 1.5-2.1-.5-.7-1.3-.7-1.8-.9-2.9 1.1-.2 1.5-.2 2.8-.9 2-1.1 1.6-2 .5-2.1-1.1-.1-1.5-1.4 0-2.5s2.6-.3 2.4.8c-.2 1 .5 1.7 2.2.1 1-1 1.2-1.5 1.8-2.5 1 .6 1.5.7 2.5 1.8 1.6 1.7.9 2.4-.1 2.2-1-.2-1.9.9-.8 2.4 1.1 1.5 2.4 1 2.5 0 .1-1.1 1-1.5 2.1.5.7 1.3.7 1.8.9 2.9l-9.7 7.1z" fill="#878787">
 </path>
 <path d="M19.9 7.6c-.5-.7-1-.9-1.3-.6-.2.1-.3.4-.4.8 0 .3-.2.6-.4.8-.5.4-1.3.3-2-.7v-.1c-.7-1-.6-1.9-.1-2.2.2-.2.5-.2.9-.2.4.1.7 0 .9-.1.3-.2.3-.7-.2-1.4-.1-.2-.3-.4-.5-.6-1-1-1.5-1.2-2.5-1.8-.1.1-.1.2-.2.4-.4.8-.6 1.2-1.6 2.1-.2.2-.4.4-.6.5-.9.6-1.4.5-1.6.2-.1-.2-.2-.5-.1-.9.1-.3 0-.7-.2-.9-.3-.4-1.1-.6-2.1.1h-.1c-1 .8-1.1 1.6-.8 2.1.2.2.4.4.8.4s.7.2.8.4c.3.4.2.8-.6 1.4-.2.1-.4.3-.7.4-1.3.7-1.7.7-2.9.9.2 1.1.2 1.6.9 2.9.1.3.3.5.4.7.5.7 1 .9 1.3.6.2-.1.3-.4.4-.8 0-.3.2-.6.4-.8.6-.3 1.4-.2 2.2.8v.1c.7 1 .6 1.8.1 2.2-.2.2-.6.2-.9.2-.4-.1-.7 0-.9.1-.3.2-.3.7.2 1.4.1.2.3.4.5.6 1 1 1.5 1.2 2.5 1.8l9.7-7.1c-.2-1.2-.2-1.7-.8-3-.2-.2-.3-.5-.5-.7zm-4.5.5c.3.4.7.7 1 .9.4.2.8.2 1.1.1.3-.1.5-.2.7-.5.2-.2.3-.5.3-.8 0-.3.2-.5.2-.5.1 0 .3.1.7.6.1.2.3.4.4.6.5 1 .6 1.5.8 2.2 0 .1 0 .2.1.3l-9.3 6.8c-.1 0-.2-.1-.2-.1-.7-.4-1.1-.6-1.9-1.4-.2-.2-.4-.4-.5-.6-.4-.5-.4-.8-.3-.8 0-.1.2-.1.6-.1.3.1.6 0 .9-.1.3-.1.5-.3.7-.6.2-.3.3-.7.2-1.1-.1-.4-.2-.8-.6-1.3v-.1c-.3-.3-.7-.6-1.1-.7-.4-.2-.8-.2-1.1-.1-.6.2-1 .7-1 1.3 0 .3-.2.5-.2.5-.1 0-.3-.1-.7-.6-.1-.2-.3-.4-.4-.6-.5-1-.6-1.5-.8-2.3V9h.1c.8-.2 1.4-.3 2.5-.9 1-.5 1.5-1 1.6-1.6.1-.3 0-.6-.2-.8-.2-.3-.6-.5-1.1-.5-.2 0-.4-.1-.5-.3-.1-.1-.1-.3-.1-.6.1-.2.2-.6.7-.9.5-.3.9-.5 1.3-.4.2 0 .3.1.4.2.1.2.1.4.1.6-.1.5 0 .9.2 1.2.2.2.4.4.7.4.5 0 1.2-.3 2-1.1.9-.9 1.2-1.4 1.6-2.1 0 0 0-.1.1-.1 0 0 .1 0 .1.1.7.4 1.1.6 1.9 1.4.2.2.4.4.5.6.4.5.4.8.3.8 0 .1-.2.1-.6.1-.6-.1-1.2.1-1.5.6-.2.3-.3.7-.2 1.1 0 .4.2.8.5 1.3z" fill="#878787">
 </path>
 <path d="M11.7 18.1c-1-.6-1.5-.7-2.5-1.8-1.6-1.7-.9-2.4.1-2.2 1 .2 1.9-.9.8-2.4-1.1-1.5-2.4-1-2.5 0-.1 1.1-1 1.5-2.1-.5-.7-1.3-.7-1.7-1-2.9 1.1-.2 1.6-.2 2.9-.9 2-1.1 1.6-2 .5-2.1-1.1-.1-1.5-1.4 0-2.5s2.6-.3 2.4.8c-.2 1 .5 1.7 2.2.1 1-1 1.2-1.5 1.8-2.5 1 .6 1.5.7 2.5 1.8 1.6 1.7.9 2.4-.1 2.2-1-.2-1.9.9-.8 2.4 1.1 1.5 2.4 1 2.5 0 .1-1.1 1-1.5 2.1.5.7 1.3.7 1.8.9 2.9l-9.7 7.1z" fill="#878787">
 </path>
 <ellipse cx="18.9" cy="18.6" fill="#fff" rx="6.6" ry="6.6" transform="rotate(-45.001 18.912 18.561)">
 </ellipse>
 <path d="M16.4 20.9l5.2.4-.4-5.2-1.5 1.5-2.5-2.5-1.8 1.8 2.5 2.5z">
 </path>
</svg>
