<svg fill="#FFFFFF" xmlns="http://www.w3.org/2000/svg" xmlns:xlink="http://www.w3.org/1999/xlink" version="1.1" x="0px" y="0px" viewBox="0 0 100 100" enable-background="new 0 0 100 100" xml:space="preserve"><polygon fill="#FFFFFF" points="69.592,23.73 67.446,24.5 65.749,25.514 64.611,26.727 64.081,27.973 64.081,29.238 64.624,30.442   65.774,31.668 67.496,32.724 69.649,33.488 72.078,33.856 74.635,33.856 77.07,33.447 79.23,32.679 80.91,31.664 82.053,30.447   82.597,29.206 82.58,27.94 82.034,26.693 80.893,25.515 79.162,24.454 77.01,23.689 74.581,23.321 72.025,23.321 "></polygon><path fill="#FFFFFF" d="M82.169,33.207c-0.038,0.032-0.064,0.073-0.108,0.1l-1.881,1.137c-0.045,0.026-0.092,0.04-0.138,0.059  c-0.017,0.007-0.027,0.021-0.045,0.027l-2.34,0.832c-0.033,0.012-0.066,0.009-0.1,0.018c-0.024,0.006-0.044,0.022-0.069,0.026  l-2.604,0.438c-0.056,0.009-0.111,0.014-0.165,0.014c-0.001,0-0.001,0-0.001,0h-2.713c0,0,0,0-0.001,0  c-0.05,0-0.099-0.004-0.149-0.012l-2.602-0.395c-0.027-0.004-0.048-0.021-0.074-0.026c-0.037-0.009-0.074-0.007-0.111-0.02  l-2.34-0.831c-0.019-0.007-0.03-0.021-0.048-0.028c-0.048-0.02-0.097-0.034-0.142-0.062l-1.924-1.181  c-0.042-0.025-0.067-0.065-0.104-0.096c-0.033-0.027-0.073-0.04-0.104-0.072l-0.327-0.349v1.335l0.547,1.248l1.141,1.214l1.72,1.016  l2.167,0.771l2.427,0.408l2.558-0.042l2.439-0.37l2.147-0.763l1.676-1.052l1.15-1.226l0.547-1.248v-1.29l-0.326,0.348  C82.242,33.167,82.202,33.18,82.169,33.207z"></path><path fill="#FFFFFF" d="M46.807,8.125c0.024-0.002,0.045-0.016,0.07-0.016l1.509-0.024l-1.765-0.932L44.83,8.426l1.906-0.304  C46.76,8.118,46.783,8.127,46.807,8.125z"></path><path fill="#FFFFFF" d="M84.398,27.104l0.096,0.219v0.001c0.039,0.088,0.051,0.188,0.062,0.286c0.004,0.034,0.021,0.068,0.021,0.103  l0.021,1.684c0,0.002-0.001,0.004-0.001,0.007c0,0.002,0.001,0.004,0.001,0.006v0.012c0,0.001,0,0.002,0,0.003v4.863  c0,0.002-0.001,0.004-0.001,0.006c-0.001,0.067-0.026,0.133-0.041,0.2c-0.014,0.063-0.016,0.131-0.041,0.189  c-0.001,0.002,0,0.004-0.001,0.006l-0.699,1.597c-0.045,0.103-0.107,0.19-0.178,0.269c-0.004,0.005-0.005,0.011-0.01,0.015  l-1.355,1.444c-0.03,0.031-0.069,0.044-0.102,0.071c-0.035,0.028-0.058,0.066-0.097,0.091l-1.882,1.181  c-0.046,0.029-0.097,0.044-0.145,0.064c-0.02,0.009-0.032,0.024-0.052,0.031l-2.34,0.832c-0.037,0.013-0.075,0.011-0.112,0.02  c-0.026,0.006-0.047,0.022-0.073,0.026l-2.604,0.394c-0.042,0.007-0.083,0.009-0.124,0.01c-0.003,0-0.006,0.002-0.01,0.002  l-2.713,0.044c-0.005,0-0.01,0-0.016,0c-0.001,0-0.001,0-0.002,0c-0.054,0-0.109-0.005-0.164-0.014l-2.603-0.438  c-0.026-0.004-0.046-0.021-0.07-0.027c-0.033-0.008-0.065-0.005-0.099-0.017l-2.341-0.832c-0.018-0.006-0.028-0.021-0.046-0.027  c-0.042-0.018-0.086-0.029-0.127-0.054l-1.926-1.137c-0.045-0.026-0.072-0.068-0.111-0.101c-0.035-0.028-0.077-0.042-0.109-0.076  l-1.355-1.444c-0.005-0.005-0.006-0.011-0.01-0.015c-0.071-0.078-0.133-0.166-0.178-0.269l-0.7-1.597  c-0.001-0.002-0.001-0.004-0.001-0.006c-0.025-0.059-0.027-0.126-0.041-0.189c-0.015-0.066-0.041-0.133-0.041-0.2  c0-0.002-0.001-0.004-0.001-0.006V32.69v-3.237v-1.685c0,0,0,0,0-0.001c0-0.074,0.028-0.148,0.046-0.224  c0.013-0.055,0.012-0.115,0.033-0.166v-0.001l0.68-1.597c0.023-0.057,0.067-0.097,0.101-0.146c0.031-0.049,0.05-0.103,0.091-0.146  l1.355-1.444c0.033-0.035,0.076-0.051,0.113-0.08c0.036-0.03,0.061-0.069,0.103-0.094l1.903-1.137  c0.028-0.018,0.061-0.018,0.09-0.032c0.031-0.014,0.053-0.039,0.085-0.051L69,21.817c0.029-0.011,0.06-0.005,0.089-0.013  s0.053-0.027,0.083-0.032l2.603-0.438c0.028-0.005,0.055,0.005,0.083,0.003s0.054-0.017,0.083-0.017h1.507l-14.133-7.465  l0.111,0.255c0.001,0.002,0,0.004,0.001,0.006c0.025,0.059,0.028,0.126,0.042,0.189c0.014,0.067,0.039,0.133,0.04,0.2  c0,0.002,0.001,0.004,0.001,0.006v1.637c0,0.001,0,0.002,0,0.003v0.001v4.922c0,0,0,0,0,0.001c0,0.075-0.028,0.15-0.046,0.226  c-0.013,0.055-0.013,0.113-0.033,0.164c-0.001,0-0.001,0.001-0.001,0.001l-0.678,1.597c-0.045,0.104-0.106,0.193-0.178,0.272  c-0.004,0.005-0.005,0.011-0.009,0.015l-1.334,1.443c-0.03,0.033-0.072,0.047-0.106,0.075c-0.039,0.032-0.066,0.075-0.111,0.103  l-1.926,1.159c-0.039,0.024-0.082,0.035-0.124,0.054c-0.017,0.007-0.028,0.021-0.046,0.028l-2.32,0.854  c-0.035,0.014-0.072,0.011-0.107,0.02c-0.028,0.007-0.051,0.024-0.08,0.029l-2.602,0.416c-0.052,0.009-0.105,0.013-0.157,0.013  c0,0,0,0-0.001,0h-2.691c0,0,0,0-0.001,0c-0.052,0-0.104-0.004-0.157-0.013l-2.603-0.416c-0.026-0.004-0.045-0.021-0.07-0.026  c-0.035-0.008-0.07-0.005-0.104-0.018l-2.362-0.831c-0.019-0.007-0.031-0.021-0.049-0.029c-0.049-0.021-0.1-0.035-0.146-0.064  l-1.903-1.182c-0.037-0.022-0.058-0.059-0.09-0.085c-0.032-0.025-0.071-0.038-0.101-0.068l-1.356-1.399  c-0.006-0.006-0.007-0.015-0.013-0.021c-0.074-0.08-0.139-0.169-0.185-0.274l-0.7-1.598v-0.001  c-0.038-0.087-0.049-0.185-0.062-0.282c-0.004-0.035-0.022-0.07-0.022-0.106l-0.021-1.683c0-0.004,0.002-0.007,0.002-0.01  c0-0.004-0.002-0.006-0.002-0.01l0.021-3.218v-0.001v-0.007l-0.021-1.634c0-0.004,0.002-0.008,0.002-0.012  c0-0.064,0.023-0.128,0.037-0.192c0.013-0.067,0.017-0.137,0.043-0.198c0.001-0.004,0-0.008,0.002-0.012l0.149-0.341L23.244,23.76  l1.901-0.304c0.028-0.005,0.053,0.005,0.081,0.003c0.027-0.002,0.05-0.016,0.077-0.016h2.669c0.028,0,0.052,0.014,0.079,0.016  c0.027,0.002,0.052-0.007,0.079-0.003l2.604,0.416c0.029,0.005,0.052,0.022,0.08,0.03c0.029,0.007,0.058,0.001,0.086,0.011  l2.362,0.81c0.035,0.012,0.06,0.039,0.093,0.055c0.033,0.015,0.068,0.017,0.099,0.035l1.925,1.159  c0.042,0.025,0.066,0.064,0.103,0.095c0.037,0.03,0.082,0.047,0.115,0.083l1.335,1.443c0.038,0.041,0.054,0.092,0.084,0.138  c0.029,0.044,0.07,0.078,0.093,0.129l0.722,1.597c0.002,0.004,0.001,0.008,0.002,0.012c0.027,0.061,0.031,0.13,0.045,0.196  c0.014,0.064,0.038,0.128,0.039,0.192c0,0.004,0.002,0.008,0.002,0.012v1.641v0.012c0,0.001,0,0.002,0,0.003v4.907  c0,0.002-0.001,0.004-0.001,0.006c0,0.067-0.026,0.134-0.041,0.2c-0.014,0.063-0.016,0.131-0.041,0.189c0,0.002,0,0.004-0.001,0.006  l-0.7,1.598c-0.045,0.102-0.106,0.189-0.177,0.268c-0.004,0.005-0.005,0.011-0.01,0.016l-1.334,1.422  c-0.031,0.032-0.071,0.046-0.105,0.073c-0.037,0.03-0.062,0.071-0.104,0.097l-1.903,1.159c-0.042,0.025-0.088,0.038-0.132,0.057  c-0.017,0.008-0.028,0.022-0.045,0.028l-2.341,0.853c-0.036,0.013-0.072,0.011-0.107,0.019c-0.027,0.007-0.049,0.024-0.078,0.029  l-2.604,0.416c-0.053,0.009-0.105,0.013-0.157,0.013c0,0-0.001,0-0.001,0h-2.69c0,0,0,0-0.001,0c-0.052,0-0.104-0.004-0.156-0.013  l-2.625-0.416c-0.025-0.004-0.044-0.02-0.068-0.025c-0.035-0.008-0.07-0.006-0.104-0.018l-2.318-0.809  c-0.018-0.006-0.029-0.021-0.046-0.027c-0.047-0.02-0.096-0.033-0.141-0.061l-1.925-1.16c-0.043-0.026-0.069-0.066-0.107-0.098  c-0.034-0.027-0.075-0.041-0.106-0.074l-1.335-1.422c-0.003-0.004-0.004-0.009-0.008-0.013c-0.07-0.077-0.131-0.164-0.176-0.265  l-0.722-1.618c-0.001-0.003-0.001-0.006-0.002-0.008c-0.027-0.062-0.031-0.135-0.045-0.202c-0.013-0.063-0.038-0.125-0.038-0.188  c0-0.004-0.002-0.007-0.002-0.01v-1.619v-3.281v-1.662c0-0.057,0.024-0.111,0.034-0.168c0.013-0.075,0.017-0.154,0.046-0.224  l0.146-0.343l-10.402,7.39L52.71,61.582c0.333-0.119,0.693-0.056,0.964,0.171l41.082-29.178L84.398,27.104z M62.987,44.743  L62.987,44.743v0.002v4.873c0,0.001,0,0.001,0,0.002v0.002c0,0.06-0.024,0.11-0.034,0.167c-0.012,0.073-0.014,0.147-0.043,0.22  l-0.002,0.002c0,0.001,0,0.001,0,0.001l-0.676,1.615c-0.046,0.108-0.111,0.2-0.186,0.282c-0.006,0.007-0.008,0.015-0.014,0.021  l-1.356,1.422c-0.028,0.03-0.066,0.042-0.098,0.067c-0.033,0.027-0.054,0.064-0.092,0.088l-1.903,1.203  c-0.051,0.032-0.105,0.05-0.159,0.071c-0.019,0.007-0.03,0.022-0.048,0.028l-2.342,0.81c-0.03,0.011-0.062,0.008-0.092,0.016  c-0.021,0.005-0.039,0.02-0.061,0.023l-2.603,0.459c-0.059,0.011-0.116,0.016-0.173,0.016h-0.001h-2.69c0,0,0,0-0.001,0  c-0.057,0-0.114-0.005-0.173-0.016l-2.604-0.459c-0.021-0.004-0.037-0.018-0.058-0.022c-0.031-0.008-0.062-0.006-0.092-0.016  l-2.362-0.81c-0.018-0.006-0.029-0.021-0.046-0.027c-0.05-0.021-0.102-0.035-0.149-0.064l-1.903-1.159  c-0.043-0.026-0.069-0.067-0.106-0.099c-0.033-0.026-0.072-0.04-0.102-0.071l-1.356-1.443c-0.003-0.003-0.004-0.008-0.007-0.011  c-0.07-0.076-0.131-0.162-0.176-0.262l-0.722-1.598c-0.002-0.004-0.001-0.008-0.003-0.012c-0.026-0.061-0.03-0.13-0.045-0.196  c-0.014-0.064-0.038-0.128-0.039-0.192c0-0.004-0.002-0.008-0.002-0.012v-1.641v-3.237v-1.685c0-0.002,0.001-0.004,0.001-0.006  c0-0.067,0.026-0.133,0.041-0.2c0.014-0.063,0.016-0.131,0.042-0.189c0-0.002,0-0.004,0.001-0.006l0.7-1.597  c0.022-0.051,0.062-0.085,0.092-0.131c0.033-0.051,0.051-0.106,0.094-0.152l1.334-1.422c0.032-0.034,0.075-0.05,0.11-0.078  c0.035-0.028,0.059-0.067,0.099-0.092l1.903-1.159c0.032-0.02,0.069-0.021,0.103-0.037c0.033-0.016,0.056-0.042,0.091-0.054  l2.341-0.81c0.027-0.009,0.054-0.004,0.081-0.011c0.025-0.007,0.046-0.023,0.072-0.028l2.603-0.459  c0.03-0.006,0.059,0.004,0.088,0.002c0.03-0.003,0.055-0.018,0.085-0.018h2.691c0.028,0,0.052,0.014,0.079,0.016  c0.026,0.002,0.051-0.007,0.077-0.003l2.625,0.415c0.029,0.005,0.052,0.022,0.08,0.03c0.03,0.007,0.061,0.001,0.091,0.012l2.34,0.81  c0.038,0.014,0.064,0.042,0.101,0.059c0.035,0.018,0.072,0.02,0.106,0.041l1.903,1.203c0.036,0.022,0.057,0.059,0.088,0.085  c0.033,0.026,0.072,0.039,0.102,0.07l1.356,1.422c0.04,0.042,0.058,0.095,0.089,0.142c0.03,0.044,0.071,0.078,0.094,0.128  l0.723,1.554c0.002,0.005,0.001,0.01,0.003,0.015c0.028,0.062,0.033,0.132,0.048,0.199c0.014,0.064,0.037,0.127,0.039,0.19  c0,0.006,0.003,0.011,0.003,0.017V44.743z"></path><polygon fill="#FFFFFF" points="59.271,40.864 57.569,39.788 55.418,39.044 52.965,38.656 50.435,38.656 48.002,39.085   45.835,39.835 44.14,40.867 43.016,42.065 42.469,43.312 42.469,44.571 43.03,45.814 44.178,46.999 45.885,48.059 48.061,48.824   50.494,49.212 53.021,49.212 55.451,48.783 57.621,48.013 59.321,46.997 60.459,45.787 60.987,44.54 60.987,43.279 60.43,42.078 "></polygon><polygon fill="#FFFFFF" points="54.479,90.645 95.659,61.334 95.659,34.387 54.479,63.635 "></polygon><polygon fill="#FFFFFF" points="39.582,17.235 40.725,18.452 42.421,19.485 44.611,20.236 47.036,20.664 49.565,20.623   52.006,20.233 54.139,19.488 55.855,18.416 56.979,17.218 57.51,15.952 57.51,14.723 56.965,13.479 55.82,12.279 54.121,11.244   51.954,10.494 49.53,10.067 46.979,10.108 44.537,10.498 42.382,11.243 40.689,12.294 39.562,13.514 39.016,14.759 39.031,15.98 "></polygon><path fill="#FFFFFF" d="M60.577,48.542c-0.039,0.032-0.066,0.074-0.11,0.101l-1.904,1.138c-0.042,0.025-0.088,0.038-0.133,0.057  c-0.017,0.007-0.027,0.021-0.045,0.027l-2.342,0.831c-0.031,0.011-0.062,0.009-0.095,0.017c-0.023,0.006-0.042,0.021-0.065,0.025  l-2.603,0.459c-0.059,0.011-0.116,0.016-0.173,0.016h-0.001h-2.69c0,0,0,0-0.001,0c-0.051,0-0.104-0.004-0.156-0.013l-2.604-0.415  c-0.025-0.004-0.045-0.021-0.07-0.026c-0.035-0.008-0.07-0.005-0.105-0.018l-2.362-0.831c-0.019-0.007-0.031-0.021-0.049-0.029  c-0.049-0.021-0.1-0.036-0.146-0.064l-1.903-1.182c-0.038-0.023-0.06-0.061-0.093-0.088c-0.031-0.024-0.069-0.037-0.098-0.066  l-0.36-0.371v1.341l0.565,1.251l1.147,1.221l1.696,1.033l2.19,0.751l2.434,0.429h2.521l2.433-0.429l2.159-0.747l1.701-1.076  l1.145-1.198l0.528-1.263v-1.277l-0.306,0.325C60.651,48.501,60.61,48.515,60.577,48.542z"></path><path fill="#FFFFFF" d="M39.578,22.148l1.147,1.184l1.704,1.058l2.176,0.766l2.433,0.389h2.535l2.426-0.388l2.14-0.787l1.722-1.037  l1.119-1.211l0.531-1.25v-1.295l-0.283,0.302c-0.029,0.031-0.069,0.044-0.102,0.071c-0.035,0.028-0.059,0.067-0.098,0.092  l-1.925,1.203c-0.048,0.03-0.101,0.046-0.151,0.067c-0.018,0.007-0.03,0.022-0.049,0.029l-2.32,0.81  c-0.033,0.012-0.068,0.01-0.104,0.018c-0.023,0.006-0.043,0.021-0.068,0.025l-2.602,0.416c-0.044,0.007-0.088,0.01-0.131,0.011  c-0.004,0-0.007,0.002-0.01,0.002l-2.691,0.043c-0.005,0-0.011,0-0.017,0c0,0,0,0-0.001,0c-0.057,0-0.114-0.005-0.172-0.016  l-2.603-0.459c-0.021-0.004-0.037-0.018-0.058-0.022c-0.031-0.008-0.062-0.006-0.092-0.016l-2.362-0.81  c-0.018-0.006-0.029-0.021-0.046-0.027c-0.05-0.021-0.102-0.035-0.149-0.064l-1.903-1.159c-0.043-0.026-0.069-0.067-0.106-0.099  c-0.033-0.026-0.072-0.04-0.102-0.071l-0.348-0.37l0.017,1.351L39.578,22.148z"></path><polygon fill="#FFFFFF" points="19.113,33.786 20.83,34.821 22.973,35.568 25.436,36 27.952,36 30.386,35.57 32.545,34.824   34.242,33.751 35.372,32.547 35.919,31.299 35.919,30.084 35.353,28.831 34.225,27.611 32.514,26.581 30.33,25.833 27.894,25.443   25.381,25.443 22.946,25.833 20.796,26.576 19.094,27.652 17.948,28.854 17.422,30.094 17.422,31.337 17.986,32.586 "></polygon><polygon fill="#FFFFFF" points="4.341,65.512 52.479,90.925 52.479,63.722 4.341,38.33 "></polygon><path fill="#FFFFFF" d="M19.113,38.708l1.717,1.035l2.139,0.746l2.455,0.389h2.536l2.429-0.388l2.156-0.785l1.704-1.038l1.124-1.198  l0.547-1.248v-1.333l-0.305,0.325c-0.029,0.03-0.067,0.043-0.1,0.069c-0.034,0.029-0.057,0.067-0.096,0.092l-1.903,1.203  c-0.051,0.032-0.105,0.05-0.159,0.071c-0.018,0.007-0.03,0.021-0.048,0.028l-2.341,0.809c-0.031,0.011-0.062,0.008-0.093,0.016  c-0.021,0.005-0.038,0.02-0.06,0.023l-2.604,0.46C28.153,37.995,28.095,38,28.038,38c0,0-0.001,0-0.001,0h-2.69c0,0,0,0-0.001,0  c-0.057,0-0.114-0.005-0.171-0.015l-2.625-0.46c-0.024-0.004-0.042-0.02-0.065-0.025c-0.031-0.008-0.062-0.005-0.092-0.016  l-2.318-0.809c-0.018-0.006-0.029-0.021-0.046-0.027c-0.047-0.02-0.096-0.033-0.141-0.061l-1.925-1.16  c-0.043-0.026-0.069-0.066-0.107-0.098c-0.034-0.027-0.075-0.041-0.106-0.074l-0.328-0.349v1.334l0.565,1.268L19.113,38.708z"></path></svg>