<svg id="Layer_2" viewbox="0 0 36 24" xmlns="http://www.w3.org/2000/svg">
 <path d="M26 14.4c-.3-1.2-1.7-.4-1.7-.5l-4.2 1c-.1.1-.3.1-.3 0-.1-.1-.1-.3 0-.3l6.6-4.2c.5-.4.5-1 .2-1.5-.4-.5-1-.5-1.5-.2l-6.6 4.2c-.1.1-.3.1-.3 0-.1-.1-.1-.3 0-.3l6.6-5.8c.5-.4.5-1.4.2-1.9-.4-.5-1-.5-1.5-.2L16.9 11c-.1.1-.3.1-.3 0-.1-.1-.1-.3 0-.3l3.9-5.5c.5-.4.8-1 .5-1.5-.4-.5-1.3-.5-1.8-.2L15 9l-2.7 2.1c-.1.1-.3.1-.3 0s-.1-.1 0-.2l.6-4.5c.1-.6-.3-1.1-.9-1.2-.6-.1-1.1.3-1.2.9 0 0-1.2 5.7-1.3 6.7-.1.9.4 1.7.5 1.9l4.6 5.9c.4.5 1.3.6 1.9.1l3.5-2.7.6-.5 5.2-1.9c.4-.4.6-.7.5-1.2z" fill="#fff">
 </path>
</svg>
