<svg id="Layer_1" viewbox="0 0 61.9 58.7" xmlns="http://www.w3.org/2000/svg">
 <path d="M52.9 52.6H9V20.7h43.9v31.9zm-40.7-3.2h37.4V24H12.2v25.4z" fill="#878787">
 </path>
 <path d="M22 36.8h3.3V51H22zm15.7-14.4H41v14.2h-3.3zm6.9 12.5h6.6v3.3h-6.6zm-34-1.5h6.6v3.3h-6.6z" fill="#878787">
 </path>
 <circle cx="30.2" cy="20.6" fill="#39b54a" r="12.9">
 </circle>
 <path d="M34.9 18.1h-3.1V15c0-.7-.6-1.2-1.2-1.2h-1.5c-.7 0-1.2.6-1.2 1.2v3.1h-3.1c-.7 0-1.2.6-1.2 1.2v1.5c0 .7.6 1.2 1.2 1.2h3.1v3.1c0 .7.6 1.2 1.2 1.2h1.5c.7 0 1.2-.6 1.2-1.2V22h3.1c.7 0 1.2-.6 1.2-1.2v-1.5c.1-.6-.5-1.2-1.2-1.2z" fill="#58595b">
 </path>
</svg>
