<svg fill="#FFFFFF" xmlns="http://www.w3.org/2000/svg" data-name="Layer 1" viewBox="0 0 512 512" x="0px" y="0px">
  <g transform="scale(0.8) translate(2, 0)">
    <title>eraser</title>
    <path d="M509.42,69.18a12.3,12.3,0,0,0-9.77-4.81H254.73a12.18,12.18,0,0,0-6.16,1.72l-0.42-.37L41.63,284l-2.19,2.46,0.26,0.31a10.6,10.6,0,0,0-1,2.51L0.41,432.16a12.31,12.31,0,0,0,11.91,15.46h245c3.92,0,7.42-1.67,11-5.28L469.77,228.94a20.06,20.06,0,0,0,3.55-6.22L510.25,84.85l1.36-5A12.37,12.37,0,0,0,509.42,69.18ZM279.55,304.74L247.84,423.07H28.31L60,304.74H279.55ZM473.06,88.93L292.19,280.14h-213L260,88.93h213Z"></path>
  </g>
</svg>
