<svg id="Layer_2" viewbox="0 0 36 24" xmlns="http://www.w3.org/2000/svg">
 <path d="M20.3 2.4c-4 0-7.2 3.2-7.2 7.1 0 1.6.5 3.1 1.5 4.3l-6.1 6s-.1 2 1.8 1.8c.2-.2 6.2-6.1 6.2-6.1 1.1.7 2.5 1.1 3.9 1.1 4 0 7.2-3.2 7.2-7.1 0-3.9-3.3-7.1-7.3-7.1zm0 13.2c-3.4 0-6.2-2.7-6.2-6s2.8-6 6.2-6c3.4 0 6.2 2.7 6.2 6 0 3.2-2.8 6-6.2 6z" fill="#fff">
 </path>
 <path d="M17.1 8.4h1.8V6.7c0-.4.3-.7.7-.7h.9c.4 0 .7.3.7.7v1.8H23c.4 0 .7.3.7.7v.8c0 .4-.3.7-.7.7h-1.8v1.8c0 .4-.3.7-.7.7h-.9c-.4 0-.7-.3-.7-.7v-1.8h-1.8c-.4 0-.7-.3-.7-.7v-.8c0-.4.4-.8.7-.8z" fill="#fff">
 </path>
</svg>
