<svg fill="#FFFFFF" xmlns="http://www.w3.org/2000/svg" xmlns:xlink="http://www.w3.org/1999/xlink" version="1.1" x="0px" y="0px" viewBox="0 0 256 256" enable-background="new 0 0 256 256" xml:space="preserve">
  <g transform="scale(0.9)">
    <path d="M224.329,203.521l-59.144-59.145c-5.579,8.164-12.645,15.229-20.809,20.808l59.145,59.145   c3.905,3.905,10.237,3.905,14.142,0l6.667-6.666C228.235,213.758,228.235,207.427,224.329,203.521z"></path><path d="M170.742,99.742c0-39.149-31.851-71-71.001-71c-39.149,0-71,31.851-71,71c0,39.149,31.851,71,71,71   C138.892,170.742,170.742,138.891,170.742,99.742z M99.742,153.742c-29.822,0-54-24.177-54-54c0-29.823,24.178-54,54-54   c29.824,0,54.001,24.177,54.001,54C153.742,129.565,129.566,153.742,99.742,153.742z"></path><path d="M70,130h60V70H70V130z M82,82h36v36H82V82z"></path>
  </g>
</svg>
