<?xml version="1.0" standalone="no"?>
<!DOCTYPE svg PUBLIC "-//W3C//DTD SVG 20010904//EN"
 "http://www.w3.org/TR/2001/REC-SVG-20010904/DTD/svg10.dtd">
<svg version="1.0" xmlns="http://www.w3.org/2000/svg"
 width="700.000000pt" height="700.000000pt" viewBox="0 0 700.000000 700.000000"
 preserveAspectRatio="xMidYMid meet">
<metadata>
Created by potrace 1.11, written by Peter Selinger 2001-2013
</metadata>
<g transform="translate(0.000000,700.000000) scale(0.100000,-0.100000)"
fill="#000000" stroke="none">
<path d="M2192 4787 l-2172 -2172 173 -173 c95 -94 177 -172 182 -172 6 0 502
492 1102 1092 l1093 1093 675 -675 675 -675 180 180 180 180 -675 675 -675
675 718 718 718 718 24 -27 c14 -14 519 -517 1123 -1117 l1098 -1091 175 175
174 174 -1291 1298 c-710 713 -1294 1297 -1297 1297 -4 0 -985 -978 -2180
-2173z"/>
</g>
</svg>
