<svg id="Layer_1" xmlns="http://www.w3.org/2000/svg" viewBox="0 0 29.9 22.4">
    <style>
        .st0{fill:#aaa}
    </style>
    <path class="st0" d="M15.9 19.6l-2.4-.1c-.2 0-.4-.2-.4-.4v-.7c0-.5-.3-1.1-.8-1.3-.2-.1-.3-.1-.5-.1-.4 0-.8.1-1.1.4l-.5.5c-.1.1-.2.1-.3.1-.1 0-.2-.1-.3-.1L8 16.1c-.2-.2-.2-.4 0-.6l.5-.5c.4-.4.6-1 .4-1.5-.2-.5-.7-.9-1.3-.9h-.7c-.2 0-.4-.2-.4-.4l.1-2.4c0-.2.2-.4.4-.4h.7c.5 0 1.1-.3 1.3-.8.3-.5.2-1.2-.2-1.6l-.5-.5c-.2-.2-.2-.4 0-.6l1.8-1.6c.1-.1.2-.1.3-.1.1 0 .2.1.3.1l.5.5c.2.3.6.4 1 .4.2 0 .3 0 .5-.1.5-.2.9-.7.9-1.3v-.7c0-.2.2-.4.4-.4l2.4.1c.2 0 .4.2.4.4v.7c0 .5.3 1.1.8 1.3.1.1.3.1.5.1.4 0 .8-.1 1.1-.4l.5-.5c.1-.1.2-.1.3-.1.1 0 .2.1.3.1l1.6 1.8c.2.2.1.4 0 .6l-.5.5c-.4.4-.6 1-.4 1.5.2.5.7.9 1.3.9h.7c.2 0 .4.2.4.4l-.1 2.4c0 .2-.2.4-.4.4h-.7c-.5 0-1.1.3-1.3.8-.2.5-.1 1.1.3 1.5l.5.5c.2.2.2.4 0 .6l-1.8 1.6c-.1.1-.2.1-.3.1-.1 0-.2-.1-.3-.1l-.5-.5c-.2-.3-.6-.4-1-.4-.2 0-.3 0-.5.1-.5.2-.9.7-.9 1.3v.7c-.1.4-.3.5-.5.5zm-.9-11c-1.4 0-2.7 1.1-2.7 2.5 0 1.5 1.1 2.7 2.5 2.7 1.5 0 2.7-1.1 2.7-2.5.1-1.5-1-2.7-2.5-2.7z"/>
</svg>
