<svg id="Layer_1" xmlns="http://www.w3.org/2000/svg" viewBox="0 0 20 20">
    <style>
        .st0{fill:#fff}.st1{fill:#39b54a}.st2{fill:#58595b}
    </style>
    <path class="st0" d="M18.4 17.7V5H.6v13h18.2l-.4-.3zM1.6 6h15.8v11L13 13.7l-2.3 1.7L7 11.5 1.8 17h-.2V6z"/>
    <circle class="st1" cx="9.7" cy="5.4" r="5"/>
    <path class="st2" d="M11.5 4.5h-1.2V3.3c0-.3-.2-.5-.5-.5h-.6c-.3 0-.5.2-.5.5v1.2H7.5c-.3 0-.5.2-.5.5v.6c0 .2.2.4.5.4h1.2v1.2c0 .3.2.5.5.5h.6c.3 0 .5-.2.5-.5V6h1.2c.3 0 .5-.2.5-.5V5c-.1-.3-.3-.5-.5-.5z"/>
</svg>
