<svg id="Layer_1" xmlns="http://www.w3.org/2000/svg" viewBox="0 0 29.9 22.4">
    <style>
        .st0{fill:#aaa}
    </style>
    <path class="st0" d="M14.3 15.2c.8.4 1.6.6 2.6.4-.1.1-.1.2-.2.2L14 18.5c-1.2 1.2-2.7 1.8-4.4 1.3-3.1-.9-3.9-4.6-1.7-7 .9-1 1.9-1.9 2.8-2.8.4-.4.8-.8 1.2-1.1 1.6-1.2 3.9-1.2 5.3 0 .6.5.7 1.2.3 1.7-.4.5-1.1.5-1.7 0-.9-.7-2-.6-2.9.3-1.2 1.1-2.3 2.3-3.4 3.4-.2.2-.3.3-.4.5-.3.5-.4 1-.3 1.5.2 1.1 1.4 1.7 2.4 1.3.4-.2.8-.4 1.2-.7.7-.5 1.2-1.1 1.9-1.7-.1 0 0 0 0 0z"/>
    <path class="st0" d="M16.7 7.2c-1-.2-1.8-.3-2.6-.5l.2-.2 2.8-2.8c1.7-1.6 4.1-1.7 5.7-.3 1.8 1.5 1.9 4.2.3 6-1.2 1.4-2.6 2.6-3.9 3.9-1.6 1.5-4 1.5-5.6.2-.2-.2-.4-.5-.5-.8-.1-.5.1-.9.5-1.1.4-.2.8-.2 1.2.1 1.3.9 2.2.8 3.3-.3l3.2-3.2c.4-.5.7-1.1.7-1.8-.1-1.4-1.6-2.2-2.9-1.5-.3.2-.5.4-.8.6-.5.6-1.1 1.2-1.6 1.7z"/>
</svg>
