<svg id="Layer_1" xmlns="http://www.w3.org/2000/svg" viewBox="0 0 61.9 58.7">
    <style>
        .st0{fill:none;stroke:#878787;stroke-width:3.2517;stroke-miterlimit:10}.st1{fill:#39b54a}.st2{fill:#58595b}
    </style>
    <path class="st0" d="M11.4 26.8H52v28.7H11.4zm13 28.6V41.2m15.7-.2V26.8m5.3 14.1H52m-40.6-1.5H18"/>
    <path class="st1" d="M43.3 13.6c0-6.8-5.5-12.3-12.3-12.3-6.8 0-12.3 5.4-12.3 12.2 0 1.4.3 3 .7 4L31 50.4l10.7-30.6c1-1.9 1.6-4 1.6-6.2z"/>
    <path class="st2" d="M36.4 9.6h-3.1V6.5c0-.7-.6-1.2-1.2-1.2h-1.5c-.7 0-1.2.6-1.2 1.2v3.1h-3.1c-.7 0-1.2.6-1.2 1.2v1.5c0 .7.6 1.2 1.2 1.2h3.1v3.1c0 .7.6 1.2 1.2 1.2h1.5c.7 0 1.2-.6 1.2-1.2v-3.1h3.1c.7 0 1.2-.6 1.2-1.2v-1.5c0-.7-.5-1.2-1.2-1.2z"/>
</svg>
