<svg id="Layer_1" xmlns="http://www.w3.org/2000/svg" viewBox="0 0 61.9 58.7">
    <style>
        .st0{fill:#878787}.st1{fill:#39b54a}.st2{fill:#58595b}
    </style>
    <path class="st0" d="M52.9 52.6H9V20.7h43.9v31.9zm-40.7-3.2h37.4V24H12.2v25.4z"/>
    <path class="st0" d="M22 36.8h3.3V51H22zm15.7-14.4H41v14.2h-3.3zm6.9 12.5h6.6v3.3h-6.6zm-34-1.5h6.6v3.3h-6.6z"/>
    <circle class="st1" cx="30.2" cy="20.6" r="12.9"/>
    <path class="st2" d="M34.9 18.1h-3.1V15c0-.7-.6-1.2-1.2-1.2h-1.5c-.7 0-1.2.6-1.2 1.2v3.1h-3.1c-.7 0-1.2.6-1.2 1.2v1.5c0 .7.6 1.2 1.2 1.2h3.1v3.1c0 .7.6 1.2 1.2 1.2h1.5c.7 0 1.2-.6 1.2-1.2V22h3.1c.7 0 1.2-.6 1.2-1.2v-1.5c.1-.6-.5-1.2-1.2-1.2z"/>
</svg>
